<svg xmlns="http://www.w3.org/2000/svg" version="1.0" width="512.000000pt" height="512.000000pt" viewBox="0 0 512.000000 512.000000" preserveAspectRatio="xMidYMid meet">

<g transform="translate(0.000000,512.000000) scale(0.100000,-0.100000)" fill="#bb0003" stroke="none">
<path d="M2340 4679 c-568 -58 -1121 -367 -1471 -824 -132 -172 -260 -415 -330 -625 -146 -443 -144 -928 7 -1363 258 -740 871 -1264 1648 -1408 143 -26 439 -36 586 -20 799 89 1470 598 1763 1336 148 372 186 805 106 1210 -59 300 -196 604 -386 856 -96 128 -291 324 -414 416 -439 328 -968 476 -1509 422z m340 -419 c242 -19 441 -74 650 -180 813 -415 1160 -1385 790 -2212 -235 -524 -710 -893 -1280 -994 -142 -25 -423 -25 -565 0 -560 101 -1040 472 -1268 981 -293 655 -156 1404 349 1909 301 301 689 475 1114 499 30 2 60 4 65 5 6 1 71 -3 145 -8z" fill="#bb0003"/>
<path d="M1855 3260 l-150 -150 278 -278 277 -277 -275 -275 -275 -275 150 -150 150 -150 275 275 275 275 275 -275 275 -275 150 150 150 150 -275 275 -275 275 277 277 278 278 -150 150 -150 150 -277 -277 -278 -278 -278 278 -277 277 -150 -150z" fill="#bb0003"/>
</g>
</svg>